<svg width="20" height="20" viewBox="0 0 20 20" fill="none" xmlns="http://www.w3.org/2000/svg">
<path d="M16.6922 6.43281L12.3172 2.05781C12.2591 1.99979 12.1902 1.95378 12.1143 1.92241C12.0384 1.89105 11.9571 1.87494 11.875 1.875H4.375C4.04348 1.875 3.72554 2.0067 3.49112 2.24112C3.2567 2.47554 3.125 2.79348 3.125 3.125V16.875C3.125 17.2065 3.2567 17.5245 3.49112 17.7589C3.72554 17.9933 4.04348 18.125 4.375 18.125H15.625C15.9565 18.125 16.2745 17.9933 16.5089 17.7589C16.7433 17.5245 16.875 17.2065 16.875 16.875V6.875C16.8751 6.7929 16.859 6.71159 16.8276 6.63572C16.7962 6.55985 16.7502 6.4909 16.6922 6.43281ZM12.5 4.00859L14.7414 6.25H12.5V4.00859ZM15.625 16.875H4.375V3.125H11.25V6.875C11.25 7.04076 11.3158 7.19973 11.4331 7.31694C11.5503 7.43415 11.7092 7.5 11.875 7.5H15.625V16.875ZM12.0672 13.0586C12.436 12.4725 12.576 11.771 12.4604 11.0882C12.3447 10.4054 11.9816 9.78914 11.4403 9.35717C10.899 8.9252 10.2175 8.7078 9.52609 8.74651C8.83464 8.78522 8.1817 9.07732 7.69201 9.56701C7.20232 10.0567 6.91022 10.7096 6.87151 11.4011C6.8328 12.0925 7.0502 12.774 7.48217 13.3153C7.91414 13.8566 8.5304 14.2197 9.2132 14.3354C9.896 14.451 10.5975 14.311 11.1836 13.9422L12.0578 14.8172C12.1159 14.8753 12.1848 14.9213 12.2607 14.9527C12.3366 14.9842 12.4179 15.0003 12.5 15.0003C12.5821 15.0003 12.6634 14.9842 12.7393 14.9527C12.8152 14.9213 12.8841 14.8753 12.9422 14.8172C13.0003 14.7591 13.0463 14.6902 13.0777 14.6143C13.1092 14.5384 13.1253 14.4571 13.1253 14.375C13.1253 14.2929 13.1092 14.2116 13.0777 14.1357C13.0463 14.0598 13.0003 13.9909 12.9422 13.9328L12.0672 13.0586ZM8.125 11.5625C8.125 11.2535 8.21664 10.9514 8.38833 10.6944C8.56002 10.4375 8.80405 10.2372 9.08956 10.1189C9.37507 10.0007 9.68923 9.96973 9.99233 10.03C10.2954 10.0903 10.5738 10.2391 10.7924 10.4576C11.0109 10.6762 11.1597 10.9546 11.22 11.2577C11.2803 11.5608 11.2493 11.8749 11.1311 12.1604C11.0128 12.446 10.8125 12.69 10.5556 12.8617C10.2986 13.0334 9.99653 13.125 9.6875 13.125C9.2731 13.125 8.87567 12.9604 8.58265 12.6674C8.28962 12.3743 8.125 11.9769 8.125 11.5625Z" fill="white"/>
</svg>
