<svg width="20" height="20" viewBox="0 0 20 20" fill="none" xmlns="http://www.w3.org/2000/svg">
<path d="M9.16013 12.3394C9.99779 11.7817 10.6338 10.9693 10.974 10.0223C11.3142 9.0752 11.3406 8.0438 11.0493 7.08058C10.758 6.11735 10.1644 5.27344 9.35641 4.67364C8.54838 4.07384 7.56879 3.75 6.56248 3.75C5.55617 3.75 4.57657 4.07384 3.76855 4.67364C2.96053 5.27344 2.36698 6.11735 2.07567 7.08058C1.78437 8.0438 1.81078 9.0752 2.15099 10.0223C2.49121 10.9693 3.12716 11.7817 3.96482 12.3394C2.44958 12.8979 1.15553 13.9313 0.275759 15.2855C0.229521 15.3542 0.197405 15.4314 0.181276 15.5127C0.165147 15.5939 0.165327 15.6776 0.181807 15.7587C0.198286 15.8399 0.230736 15.917 0.27727 15.9855C0.323804 16.054 0.383494 16.1126 0.45287 16.1579C0.522246 16.2031 0.599925 16.2341 0.68139 16.2491C0.762856 16.2641 0.846484 16.2627 0.927412 16.2451C1.00834 16.2274 1.08496 16.1939 1.1528 16.1464C1.22065 16.0988 1.27838 16.0383 1.32263 15.9683C1.89013 15.0955 2.66666 14.3782 3.58173 13.8817C4.49679 13.3852 5.52139 13.1251 6.56248 13.1251C7.60357 13.1251 8.62817 13.3852 9.54323 13.8817C10.4583 14.3782 11.2348 15.0955 11.8023 15.9683C11.894 16.1046 12.0356 16.1992 12.1965 16.2319C12.3575 16.2646 12.5248 16.2326 12.6623 16.1429C12.7999 16.0532 12.8966 15.913 12.9315 15.7525C12.9665 15.5921 12.9369 15.4243 12.8492 15.2855C11.9694 13.9313 10.6754 12.8979 9.16013 12.3394ZM3.12498 8.4394C3.12498 7.75953 3.32658 7.09492 3.7043 6.52963C4.08202 5.96434 4.61888 5.52374 5.247 5.26357C5.87512 5.00339 6.56629 4.93532 7.2331 5.06795C7.89991 5.20059 8.51241 5.52798 8.99316 6.00872C9.4739 6.48947 9.80129 7.10197 9.93393 7.76878C10.0666 8.43559 9.99849 9.12676 9.73831 9.75488C9.47814 10.383 9.03754 10.9199 8.47225 11.2976C7.90696 11.6753 7.24235 11.8769 6.56248 11.8769C5.65111 11.8759 4.77737 11.5134 4.13294 10.8689C3.48851 10.2245 3.12601 9.35077 3.12498 8.4394ZM19.5422 16.1503C19.4033 16.2409 19.2342 16.2725 19.0721 16.2384C18.9099 16.2043 18.7679 16.1071 18.6773 15.9683C18.1105 15.095 17.3341 14.3774 16.4188 13.8811C15.5036 13.3848 14.4786 13.1255 13.4375 13.1269C13.2717 13.1269 13.1127 13.0611 12.9955 12.9438C12.8783 12.8266 12.8125 12.6677 12.8125 12.5019C12.8125 12.3361 12.8783 12.1772 12.9955 12.06C13.1127 11.9427 13.2717 11.8769 13.4375 11.8769C13.9437 11.8764 14.4436 11.7641 14.9014 11.5481C15.3592 11.332 15.7636 11.0175 16.0858 10.627C16.4079 10.2366 16.6399 9.77974 16.765 9.28923C16.8902 8.79871 16.9055 8.28661 16.8097 7.78952C16.714 7.29242 16.5097 6.8226 16.2114 6.41362C15.9131 6.00464 15.5281 5.6666 15.084 5.42365C14.6399 5.1807 14.1476 5.03884 13.6423 5.0082C13.137 4.97757 12.6311 5.05892 12.1609 5.24643C12.0842 5.27958 12.0017 5.29702 11.9182 5.29772C11.8347 5.29843 11.7519 5.28238 11.6746 5.25054C11.5974 5.2187 11.5274 5.1717 11.4686 5.11233C11.4099 5.05296 11.3636 4.98241 11.3326 4.90486C11.3016 4.82731 11.2864 4.74433 11.288 4.66082C11.2896 4.57731 11.3079 4.49497 11.3419 4.41866C11.3758 4.34235 11.4248 4.27362 11.4857 4.21653C11.5467 4.15944 11.6185 4.11515 11.6969 4.08628C12.773 3.6571 13.9699 3.64165 15.0568 4.04292C16.1437 4.44419 17.0434 5.23374 17.5825 6.25926C18.1215 7.28477 18.2617 8.47359 17.976 9.59637C17.6903 10.7191 16.9988 11.6963 16.0351 12.3394C17.5504 12.8979 18.8444 13.9313 19.7242 15.2855C19.8147 15.4243 19.8464 15.5934 19.8123 15.7556C19.7781 15.9178 19.681 16.0598 19.5422 16.1503Z" fill="white"/>
</svg>
