<svg width="25" height="25" viewBox="0 0 25 25" fill="none" xmlns="http://www.w3.org/2000/svg">
<path d="M11.7188 21.0938C11.7188 21.301 11.6364 21.4997 11.4899 21.6462C11.3434 21.7927 11.1447 21.875 10.9375 21.875H4.6875C4.4803 21.875 4.28159 21.7927 4.13507 21.6462C3.98856 21.4997 3.90625 21.301 3.90625 21.0938V3.90625C3.90625 3.69905 3.98856 3.50034 4.13507 3.35382C4.28159 3.20731 4.4803 3.125 4.6875 3.125H10.9375C11.1447 3.125 11.3434 3.20731 11.4899 3.35382C11.6364 3.50034 11.7188 3.69905 11.7188 3.90625C11.7188 4.11345 11.6364 4.31216 11.4899 4.45868C11.3434 4.60519 11.1447 4.6875 10.9375 4.6875H5.46875V20.3125H10.9375C11.1447 20.3125 11.3434 20.3948 11.4899 20.5413C11.6364 20.6878 11.7188 20.8865 11.7188 21.0938ZM22.4277 11.9473L18.5215 8.04102C18.3749 7.89442 18.1761 7.81207 17.9688 7.81207C17.7614 7.81207 17.5626 7.89442 17.416 8.04102C17.2694 8.18761 17.1871 8.38643 17.1871 8.59375C17.1871 8.80107 17.2694 8.99989 17.416 9.14648L19.9893 11.7188H10.9375C10.7303 11.7188 10.5316 11.8011 10.3851 11.9476C10.2386 12.0941 10.1562 12.2928 10.1562 12.5C10.1562 12.7072 10.2386 12.9059 10.3851 13.0524C10.5316 13.1989 10.7303 13.2812 10.9375 13.2812H19.9893L17.416 15.8535C17.2694 16.0001 17.1871 16.1989 17.1871 16.4062C17.1871 16.6136 17.2694 16.8124 17.416 16.959C17.5626 17.1056 17.7614 17.1879 17.9688 17.1879C18.1761 17.1879 18.3749 17.1056 18.5215 16.959L22.4277 13.0527C22.5004 12.9802 22.558 12.894 22.5973 12.7992C22.6366 12.7043 22.6569 12.6027 22.6569 12.5C22.6569 12.3973 22.6366 12.2957 22.5973 12.2008C22.558 12.106 22.5004 12.0198 22.4277 11.9473Z" fill="#FF7979"/>
</svg>
