<svg width="113" height="14" viewBox="0 0 113 14" fill="none" xmlns="http://www.w3.org/2000/svg">
<path d="M0 9.78403H2.36095C2.44527 10.5429 2.69822 11.0488 3.0355 11.3018C3.37278 11.639 3.96302 11.7234 4.72189 11.7234C6.15532 11.7234 6.82988 11.1331 6.82988 10.037C6.82988 9.53106 6.66124 9.10946 6.40828 8.85651C6.15532 8.60355 5.64941 8.43491 5.05917 8.26627L3.79438 8.09764C1.43343 7.67604 0.252958 6.49556 0.252958 4.47189C0.252958 3.29142 0.674556 2.27958 1.43343 1.60502C2.27663 0.930468 3.28846 0.508881 4.63757 0.508881C5.90236 0.508881 6.9142 0.846156 7.67307 1.52071C8.43195 2.19527 8.85355 3.2071 8.93787 4.38757H6.57692C6.57692 3.71301 6.32396 3.29142 5.98668 3.03847C5.64941 2.78551 5.14349 2.61687 4.55325 2.61687C3.8787 2.61687 3.4571 2.78551 3.11982 3.03847C2.78254 3.29142 2.6139 3.71302 2.6139 4.30326C2.6139 4.72486 2.78254 5.14644 3.0355 5.3994C3.28846 5.65236 3.79438 5.82101 4.38461 5.98965L5.73373 6.2426C8.01035 6.66419 9.10651 7.84467 9.10651 9.95266C9.10651 11.3018 8.68491 12.3136 7.84171 12.9882C6.99852 13.6627 5.90236 14 4.46893 14C3.0355 14 1.93935 13.6627 1.18047 12.9882C0.505917 12.145 0.0843195 11.1331 0 9.78403ZM20.6583 2.86982V13.8314H18.1287V2.86982H14.7559V0.677517H23.9467V2.86982H20.6583ZM31.1139 11.2175L30.355 13.747H27.7411L32.3787 0.677517H34.4024L39.0399 13.747H36.426L35.6671 11.2175H31.1139ZM33.3905 4.13461L31.7884 9.19378H34.9926L33.3905 4.13461ZM47.4719 8.51923V13.8314H45.0266V0.761829H50.0015C51.2663 0.761829 52.2781 1.09912 53.037 1.77367C53.7958 2.44823 54.2174 3.46006 54.2174 4.64053C54.2174 5.48373 54.0488 6.24261 53.6272 6.83284C53.2056 7.42308 52.6154 7.84467 51.9408 8.18195L54.8077 13.9157H51.9408L49.4955 8.60354H47.4719V8.51923ZM49.8328 6.41125C50.4231 6.41125 50.8447 6.2426 51.1819 5.90532C51.5192 5.56805 51.6878 5.14644 51.6878 4.55621C51.6878 4.05029 51.5192 3.62869 51.1819 3.29141C50.8447 2.95414 50.4231 2.7855 49.8328 2.7855H47.4719V6.32692H49.8328V6.41125ZM63.4083 0.677517V11.6391H69.142V13.8314H60.963V0.761829H63.4083V0.677517ZM78.0798 0.677517V13.8314H75.6346V0.761829H78.0798V0.677517ZM95.0281 13.8314H92.5828L87.7766 5.65236V13.8314H85.1627V0.761829H87.6079L92.4142 8.94083V0.761829H94.8594V13.8314H95.0281ZM104.472 10.1213V13.747H102.027V0.677517H104.472V6.74852L109.025 0.677517H111.976L107.76 5.90532L112.314 13.747H109.447L106.243 7.92899L104.472 10.1213Z" fill="white"/>
</svg>
