<svg width="144" height="71" viewBox="0 0 144 71" fill="none" xmlns="http://www.w3.org/2000/svg">
<path d="M0 67.598H1.36071C1.4093 68.0354 1.55509 68.3269 1.74948 68.4727C1.94387 68.6671 2.28404 68.7157 2.72141 68.7157C3.54756 68.7157 3.93633 68.3755 3.93633 67.7438C3.93633 67.4522 3.83914 67.2092 3.69335 67.0634C3.54756 66.9176 3.25598 66.8204 2.9158 66.7232L2.18685 66.6261C0.826144 66.3831 0.14579 65.7027 0.14579 64.5364C0.14579 63.856 0.388773 63.2729 0.826144 62.8841C1.31211 62.4953 1.89527 62.2523 2.67282 62.2523C3.40177 62.2523 3.98493 62.4467 4.4223 62.8355C4.85967 63.2243 5.10265 63.8074 5.15125 64.4878H3.79054C3.79054 64.099 3.64475 63.856 3.45036 63.7103C3.25598 63.5645 2.9644 63.4673 2.62422 63.4673C2.23545 63.4673 1.99246 63.5645 1.79808 63.7103C1.60369 63.856 1.5065 64.099 1.5065 64.4392C1.5065 64.6822 1.60369 64.9252 1.74948 65.071C1.89527 65.2167 2.18685 65.3139 2.52703 65.4111L3.30457 65.5569C4.61668 65.7999 5.24844 66.4803 5.24844 67.6952C5.24844 68.4727 5.00546 69.0559 4.51949 69.4447C4.03352 69.8334 3.40177 70.0278 2.57562 70.0278C1.74948 70.0278 1.11772 69.8334 0.680353 69.4447C0.29158 68.9587 0.0485967 68.3755 0 67.598ZM11.9062 63.6131V69.9306H10.4483V63.6131H8.50442V62.3495H13.8015V63.6131H11.9062ZM17.9322 68.4241L17.4948 69.882H15.9883L18.6611 62.3495H19.8274L22.5003 69.882H20.9938L20.5564 68.4241H17.9322ZM19.2443 64.342L18.3209 67.2578H20.1676L19.2443 64.342ZM27.3599 66.869V69.9306H25.9506V62.3981H28.8178C29.5468 62.3981 30.1299 62.5925 30.5673 62.9813C31.0047 63.3701 31.2477 63.9532 31.2477 64.6336C31.2477 65.1196 31.1505 65.5569 30.9075 65.8971C30.6645 66.2373 30.3243 66.4803 29.9356 66.6746L31.5878 69.9792H29.9356L28.5262 66.9176H27.3599V66.869ZM28.7206 65.6541C29.0608 65.6541 29.3038 65.5569 29.4982 65.3625C29.6926 65.1681 29.7898 64.9252 29.7898 64.585C29.7898 64.2934 29.6926 64.0504 29.4982 63.856C29.3038 63.6616 29.0608 63.5645 28.7206 63.5645H27.3599V65.6055H28.7206V65.6541ZM36.5447 62.3495V68.6671H39.8493V69.9306H35.1354V62.3981H36.5447V62.3495ZM45.0005 62.3495V69.9306H43.5912V62.3981H45.0005V62.3495ZM54.7685 69.9306H53.3592L50.5891 65.2167V69.9306H49.0826V62.3981H50.4919L53.262 67.112V62.3981H54.6713V69.9306H54.7685ZM60.2113 67.7924V69.882H58.802V62.3495H60.2113V65.8485L62.8355 62.3495H64.5364L62.1066 65.3625L64.7308 69.882H63.0785L61.2318 66.5289L60.2113 67.7924Z" fill="white"/>
<path d="M2.13825 53.019L0.242981 54.8656H17.0088C62.2037 9.47635 127.275 1.4093 143.846 0.0485967V0C53.4077 5.19984 11.6146 43.8828 2.13825 53.019Z" fill="white"/>
<path d="M48.2079 54.8656H64.7794L41.8417 37.954C39.0717 39.8493 36.2045 41.9875 33.4831 44.1258L48.2079 54.8656ZM17.9322 20.1676H1.36072L20.7994 34.4064C23.618 32.5112 26.874 30.4701 29.887 28.7206L17.9322 20.1676Z" fill="white"/>
</svg>
