<svg width="20" height="20" viewBox="0 0 20 20" fill="none" xmlns="http://www.w3.org/2000/svg">
<path d="M17.7156 5.39064C17.6777 5.29693 17.6176 5.21382 17.5405 5.14843C17.4634 5.08304 17.3716 5.03733 17.273 5.0152C17.1744 4.99308 17.0718 4.99521 16.9742 5.02141C16.8766 5.04761 16.7868 5.0971 16.7125 5.16564L13.564 8.07111L12.2179 7.78204L11.9289 6.43595L14.8343 3.28751C14.9029 3.21321 14.9524 3.12339 14.9786 3.02576C15.0048 2.92814 15.0069 2.82561 14.9848 2.72697C14.9627 2.62834 14.9169 2.53655 14.8515 2.45946C14.7862 2.38238 14.703 2.3223 14.6093 2.28439C13.7554 1.93895 12.8297 1.80852 11.9135 1.90456C10.9973 2.0006 10.1188 2.32018 9.35504 2.83521C8.59129 3.35024 7.96571 4.04496 7.53328 4.85833C7.10084 5.67171 6.87479 6.57883 6.87497 7.50001C6.87396 8.27789 7.03354 9.0476 7.34372 9.76095L2.63981 13.8281C2.62809 13.8375 2.61716 13.8485 2.60622 13.8586C2.13732 14.3275 1.8739 14.9635 1.8739 15.6266C1.8739 15.9549 1.93857 16.28 2.06422 16.5834C2.18988 16.8867 2.37405 17.1624 2.60622 17.3945C2.83839 17.6267 3.11402 17.8109 3.41737 17.9365C3.72072 18.0622 4.04584 18.1269 4.37419 18.1269C5.0373 18.1269 5.67326 17.8634 6.14216 17.3945C6.15231 17.3844 6.16325 17.3727 6.17262 17.3617L10.239 12.6563C11.0956 13.0323 12.0325 13.1887 12.9647 13.1114C13.897 13.0341 14.7953 12.7255 15.5783 12.2136C16.3612 11.7016 17.0042 11.0025 17.4488 10.1795C17.8935 9.35644 18.1259 8.43549 18.125 7.50001C18.1262 6.77703 17.9872 6.06068 17.7156 5.39064ZM12.5 11.875C11.7602 11.874 11.0327 11.6859 10.3851 11.3281C10.2597 11.2588 10.1142 11.2348 9.97312 11.2599C9.83202 11.2851 9.70387 11.358 9.61012 11.4664L5.24294 16.5242C5.00661 16.7488 4.69192 16.8721 4.36597 16.8679C4.04002 16.8637 3.72859 16.7324 3.49809 16.5019C3.26759 16.2714 3.13625 15.96 3.13207 15.634C3.1279 15.3081 3.25122 14.9934 3.47575 14.757L8.52966 10.3906C8.63826 10.2969 8.71128 10.1686 8.73646 10.0273C8.76164 9.88602 8.73745 9.74039 8.66794 9.61486C8.26952 8.89426 8.08255 8.07587 8.12851 7.25375C8.17447 6.43163 8.4515 5.63917 8.92775 4.96748C9.404 4.29578 10.0601 3.77212 10.8207 3.45669C11.5813 3.14127 12.4155 3.04688 13.2273 3.18439L10.7898 5.82579C10.722 5.89937 10.6728 5.98815 10.6465 6.08467C10.6201 6.1812 10.6173 6.28264 10.6382 6.38048L11.0804 8.43751C11.1057 8.55516 11.1644 8.66301 11.2495 8.7481C11.3346 8.83319 11.4425 8.89191 11.5601 8.9172L13.6187 9.35939C13.7166 9.38037 13.818 9.37756 13.9145 9.35119C14.0111 9.32481 14.0998 9.27565 14.1734 9.20783L16.8148 6.77033C16.9201 7.39768 16.8875 8.04043 16.7192 8.6539C16.5509 9.26736 16.251 9.83681 15.8404 10.3226C15.4297 10.8085 14.9182 11.199 14.3413 11.4671C13.7644 11.7352 13.1361 11.8744 12.5 11.875Z" fill="white"/>
</svg>
