<svg width="20" height="20" viewBox="0 0 20 20" fill="none" xmlns="http://www.w3.org/2000/svg">
<path d="M10.9376 15.9375C10.9376 16.1229 10.8826 16.3042 10.7796 16.4583C10.6765 16.6125 10.5301 16.7327 10.3588 16.8036C10.1875 16.8746 9.99901 16.8932 9.81715 16.857C9.6353 16.8208 9.46825 16.7315 9.33714 16.6004C9.20603 16.4693 9.11674 16.3023 9.08057 16.1204C9.04439 15.9385 9.06296 15.75 9.13391 15.5787C9.20487 15.4074 9.32503 15.261 9.4792 15.158C9.63338 15.055 9.81463 15 10.0001 15C10.2487 15 10.4871 15.0988 10.663 15.2746C10.8388 15.4504 10.9376 15.6889 10.9376 15.9375ZM18.5219 6.79687C16.1192 4.82608 13.1077 3.74899 10.0001 3.74899C6.89245 3.74899 3.88091 4.82608 1.47818 6.79687C1.41472 6.84899 1.36215 6.9131 1.32347 6.98553C1.28479 7.05797 1.26076 7.13731 1.25274 7.21903C1.24473 7.30076 1.25289 7.38326 1.27675 7.46183C1.30062 7.5404 1.33973 7.6135 1.39185 7.67695C1.44397 7.74041 1.50807 7.79298 1.58051 7.83166C1.65294 7.87034 1.73229 7.89437 1.81401 7.90239C1.97906 7.91858 2.14377 7.86854 2.27193 7.76328C4.451 5.97634 7.18198 4.99975 10.0001 4.99975C12.8181 4.99975 15.5491 5.97634 17.7282 7.76328C17.8563 7.86854 18.021 7.91858 18.1861 7.90239C18.3511 7.8862 18.503 7.80511 18.6083 7.67695C18.7135 7.5488 18.7635 7.38408 18.7474 7.21903C18.7312 7.05399 18.6501 6.90213 18.5219 6.79687ZM16.0157 9.59141C14.3042 8.23642 12.1853 7.49917 10.0024 7.49917C7.81949 7.49917 5.70057 8.23642 3.98911 9.59141C3.8592 9.69438 3.77551 9.84475 3.75647 10.0094C3.73742 10.1741 3.78457 10.3396 3.88755 10.4695C3.99053 10.5994 4.1409 10.6831 4.30558 10.7022C4.47026 10.7212 4.63576 10.6741 4.76568 10.5711C6.25619 9.39127 8.10144 8.74935 10.0024 8.74935C11.9033 8.74935 13.7486 9.39127 15.2391 10.5711C15.3034 10.6221 15.3772 10.6599 15.4561 10.6824C15.5351 10.7049 15.6177 10.7116 15.6992 10.7022C15.7808 10.6928 15.8596 10.6674 15.9314 10.6274C16.0031 10.5875 16.0663 10.5339 16.1172 10.4695C16.1682 10.4052 16.2061 10.3315 16.2286 10.2525C16.2511 10.1736 16.2578 10.091 16.2484 10.0094C16.2389 9.92789 16.2135 9.849 16.1736 9.77727C16.1337 9.70555 16.08 9.64239 16.0157 9.59141ZM13.4954 12.3852C12.4802 11.6473 11.2574 11.2499 10.0024 11.2499C8.7474 11.2499 7.52463 11.6473 6.50943 12.3852C6.37537 12.4827 6.28557 12.6296 6.25978 12.7934C6.234 12.9572 6.27433 13.1245 6.37193 13.2586C6.46952 13.3927 6.61637 13.4825 6.78017 13.5082C6.94397 13.534 7.11131 13.4937 7.24536 13.3961C8.04655 12.8134 9.01174 12.4996 10.0024 12.4996C10.9931 12.4996 11.9582 12.8134 12.7594 13.3961C12.8258 13.4444 12.9011 13.4792 12.9809 13.4984C13.0607 13.5177 13.1435 13.521 13.2246 13.5082C13.3057 13.4955 13.3835 13.4669 13.4536 13.424C13.5236 13.3812 13.5845 13.325 13.6329 13.2586C13.6812 13.1922 13.716 13.117 13.7352 13.0371C13.7544 12.9573 13.7578 12.8745 13.745 12.7934C13.7322 12.7123 13.7036 12.6345 13.6608 12.5644C13.618 12.4944 13.5617 12.4335 13.4954 12.3852Z" fill="white"/>
</svg>
